<!DOCTYPE svg PUBLIC "-//W3C//DTD SVG 1.1//EN" "http://www.w3.org/Graphics/SVG/1.1/DTD/svg11.dtd">
<!-- Uploaded to: SVG Repo, www.svgrepo.com, Transformed by: SVG Repo Mixer Tools -->
<svg fill="#23ce6b" height="800px" width="800px" version="1.1" id="Layer_1" xmlns="http://www.w3.org/2000/svg" xmlns:xlink="http://www.w3.org/1999/xlink" viewBox="0 0 493.656 493.656" xml:space="preserve">
<g id="SVGRepo_bgCarrier" stroke-width="0"/>
<g id="SVGRepo_tracerCarrier" stroke-linecap="round" stroke-linejoin="round"/>
<g id="SVGRepo_iconCarrier"> <g> <g> <g> <path d="M79.648,243.104L59.544,263.2l45.256,45.256l20.096-20.104c8.576,4.872,17.648,8.648,27.104,11.264V328h64v-28.384 c9.456-2.616,18.52-6.392,27.104-11.264l20.096,20.104l45.256-45.256l-20.104-20.096c4.872-8.576,8.648-17.648,11.264-27.104H328 v-64h-28.384c-2.616-9.456-6.392-18.52-11.264-27.104l20.104-20.096L263.2,59.544l-20.096,20.104 C234.52,74.776,225.456,71,216,68.384V40h-64v28.384c-9.456,2.616-18.52,6.392-27.104,11.264L104.8,59.544L59.544,104.8 l20.104,20.096C74.776,133.48,71,142.544,68.384,152H40v64h28.384C71,225.456,74.776,234.52,79.648,243.104z M56,168h25.08 l1.376-6.288c2.624-11.968,7.336-23.312,14.016-33.72l3.48-5.424L82.176,104.8l22.632-22.632l17.768,17.776l5.424-3.48 c10.408-6.68,21.752-11.392,33.72-14.016L168,81.08V56h32v25.08l6.288,1.376c11.968,2.624,23.312,7.336,33.72,14.016l5.424,3.48 L263.2,82.176l22.632,22.632l-17.776,17.768l3.48,5.424c6.68,10.408,11.392,21.752,14.016,33.72l1.368,6.28H312v32h-25.08 l-1.376,6.288c-2.624,11.968-7.336,23.312-14.016,33.72l-3.48,5.424l17.776,17.768l-22.632,22.632l-17.768-17.776l-5.424,3.48 c-10.408,6.68-21.752,11.392-33.72,14.016L200,286.92V312h-32v-25.08l-6.288-1.376c-11.968-2.624-23.312-7.336-33.72-14.016 l-5.424-3.48L104.8,285.824l-22.632-22.632l17.776-17.768L96.464,240c-6.68-10.408-11.392-21.752-14.016-33.72L81.08,200H56V168z "/> <path d="M184,272c48.52,0,88-39.48,88-88s-39.48-88-88-88s-88,39.48-88,88S135.48,272,184,272z M224,243.824 C212.552,251.504,198.792,256,184,256s-28.552-4.496-40-12.176V232c0-13.232,10.768-24,24-24h32c13.232,0,24,10.768,24,24 V243.824z M208,152c0,13.232-10.768,24-24,24s-24-10.768-24-24s10.768-24,24-24S208,138.768,208,152z M181.944,112.052 C160.84,113.126,144,130.633,144,152c0,22.056,17.944,40,40,40c22.056,0,40-17.944,40-40c0-21.367-16.84-38.874-37.944-39.948 C224.81,113.147,256,144.985,256,184c0,17.248-6.104,33.088-16.256,45.496C238.424,208.624,221.2,192,200,192h-16h-16 c-21.2,0-38.424,16.624-39.744,37.496C118.104,217.088,112,201.248,112,184C112,144.985,143.19,113.147,181.944,112.052z"/> <path d="M91.312,416l-48-48L80,331.312L108.688,360h150.624L360,259.312V108.688L331.312,80L368,43.312l48,48v224l66.344,66.344 l11.312-11.312L432,308.688v-224L347.312,0h-14.624L288,44.688v14.624l56,56v137.376L252.688,344H115.312l-56-56H44.688 L0,332.688v14.624L84.688,432h224l61.656,61.656l11.312-11.312L315.312,416H91.312z M304,52.688v-1.376L339.312,16h1.376l16,16 L320,68.688L304,52.688z M16,340.688v-1.376L51.312,304h1.376l16,16L32,356.688L16,340.688z"/> <path d="M383.6,336c-26.248,0-47.6,21.352-47.6,47.6c0,12.712,4.952,24.664,13.944,33.656l76.4,76.4l11.312-11.312l-76.4-76.4 C355.288,399.976,352,392.04,352,383.6c0-17.424,14.176-31.6,31.6-31.6c8.44,0,16.376,3.288,22.344,9.256l76.4,76.4 l11.312-11.312l-76.4-76.4C408.264,340.952,396.312,336,383.6,336z"/> </g> </g> </g> </g>
</svg>